<?xml version="1.0" encoding="iso-8859-1"?>
<!-- Generator: Adobe Illustrator 19.0.0, SVG Export Plug-In . SVG Version: 6.00 Build 0)  -->
<svg version="1.1" id="Capa_1" xmlns="http://www.w3.org/2000/svg" xmlns:xlink="http://www.w3.org/1999/xlink" x="0px" y="0px"
	 viewBox="0 0 491.012 491.012" style="enable-background:new 0 0 491.012 491.012;" xml:space="preserve" fill="#fff">
<g>
	<g>
		<path d="M490.756,305.922c-0.046-1.919-0.391-3.819-1.024-5.632l-66.048-155.648c-2.177-5.701-7.724-9.399-13.824-9.216H289.54
			c-4.679-13.433-15.239-23.993-28.672-28.672V53.506h-30.72v52.736c-13.812,4.721-24.735,15.456-29.696,29.184H81.156
			c-6.1-0.183-11.647,3.515-13.824,9.216L1.284,300.29c-0.633,1.813-0.978,3.713-1.024,5.632
			c-3.563,44.819,29.882,84.04,74.701,87.603c44.819,3.563,84.04-29.882,87.603-74.701c0.341-4.294,0.341-8.608,0-12.902
			c-0.046-1.919-0.391-3.819-1.024-5.632l-56.832-134.144h95.232c4.799,14.123,16.005,25.139,30.208,29.696v241.664h30.72V195.842
			c13.728-4.961,24.463-15.884,29.184-29.696h96.256L329.476,300.29c-0.633,1.813-0.978,3.713-1.024,5.632
			c-3.563,44.819,29.882,84.04,74.701,87.603c44.819,3.563,84.04-29.882,87.603-74.701
			C491.098,314.53,491.098,310.216,490.756,305.922z M124.164,290.562H38.66L81.156,190.21L124.164,290.562z M366.852,290.562
			L409.86,190.21l42.496,100.352H366.852z"/>
	</g>
</g>

</svg>
