<svg id="Layer_1_1_" enable-background="new 0 0 64 64" height="512" viewBox="0 0 64 64" width="512" xmlns="http://www.w3.org/2000/svg"><path d="m24 28c3.309 0 6-2.691 6-6l-.002-3.063-.875-14.003c-.103-1.645-1.475-2.934-3.123-2.934s-3.02 1.289-3.123 2.934l-.781 12.506c-.02.314-.282.56-.596.56s-.576-.246-.596-.56l-.781-12.506c-.103-1.645-1.475-2.934-3.123-2.934s-3.02 1.289-3.123 2.934l-.781 12.506c-.02.314-.282.56-.596.56s-.576-.246-.596-.56l-.781-12.506c-.103-1.645-1.475-2.934-3.123-2.934s-3.02 1.289-3.123 2.934l-.877 14.066v3c0 3.309 2.691 6 6 6h3v7c-1.654 0-3 1.346-3 3 0 1.274.801 2.357 1.923 2.792l-1.29 14.136c-.19 1.801.396 3.606 1.608 4.953 1.213 1.347 2.947 2.119 4.759 2.119s3.546-.772 4.758-2.119 1.799-3.152 1.61-4.939l-1.292-14.151c1.123-.434 1.924-1.517 1.924-2.791 0-1.654-1.346-3-3-3v-7zm-18-6-.002-2.938.875-14.003c.037-.594.532-1.059 1.127-1.059s1.09.465 1.127 1.059l.781 12.507c.086 1.365 1.224 2.434 2.592 2.434s2.506-1.069 2.592-2.435l.781-12.507c.037-.593.532-1.058 1.127-1.058s1.09.465 1.127 1.059l.781 12.507c.086 1.365 1.224 2.434 2.592 2.434s2.506-1.069 2.592-2.435l.781-12.507c.037-.593.532-1.058 1.127-1.058s1.09.465 1.127 1.059l.873 13.941v3c0 2.206-1.794 4-4 4h-14c-2.206 0-4-1.794-4-4zm14.271 36.543c-.833.926-2.025 1.457-3.271 1.457s-2.438-.531-3.271-1.457c-.833-.925-1.236-2.167-1.104-3.419l1.288-14.124h6.174l1.291 14.138c.13 1.238-.274 2.48-1.107 3.405zm1.729-20.543c0 .551-.448 1-1 1h-8c-.552 0-1-.449-1-1s.448-1 1-1h8c.552 0 1 .449 1 1zm-3-3h-4v-7h4z"/><path d="m37.404 13.229-2.686 12.355c-.505 2.328.908 4.603 3.219 5.181.695.174 1.43.174 2.125 0l2.938-.734v4.969c-1.654 0-3 1.346-3 3 0 1.274.801 2.357 1.923 2.792l-1.29 14.136c-.19 1.801.396 3.606 1.608 4.953 1.213 1.347 2.947 2.119 4.759 2.119s3.546-.772 4.758-2.119 1.799-3.152 1.61-4.939l-1.292-14.151c1.123-.434 1.924-1.517 1.924-2.791 0-1.654-1.346-3-3-3v-4.969l2.938.734c.348.087.705.13 1.063.13s.715-.043 1.063-.13c2.311-.578 3.724-2.853 3.219-5.181l-2.686-12.355c-1.083-4.976-4.522-9.144-9.202-11.148-.25-.108-.537-.108-.787 0-4.681 2.005-8.121 6.173-9.204 11.148zm12.867 45.314c-.833.926-2.025 1.457-3.271 1.457s-2.438-.531-3.271-1.457c-.833-.925-1.236-2.167-1.104-3.419l1.288-14.124h6.174l1.291 14.138c.13 1.238-.274 2.48-1.107 3.405zm1.729-20.543c0 .551-.448 1-1 1h-8c-.552 0-1-.449-1-1s.448-1 1-1h8c.552 0 1 .449 1 1zm-3-3h-4v-5.469l1.158-.29c.551-.138 1.133-.138 1.684 0l1.158.29zm-2-30.905c3.885 1.812 6.727 5.355 7.641 9.559l2.686 12.355c.275 1.265-.493 2.501-1.748 2.815-.379.095-.777.095-1.156 0l-3.695-.924-1.41-4.935c-.333-1.157-1.405-1.965-2.608-1.965-1.494 0-2.71 1.216-2.71 2.71v.29h2v-.29c0-.392.318-.71.71-.71.315 0 .597.212.683.515l1.093 3.826-.159-.04c-.434-.108-.88-.163-1.326-.163s-.893.054-1.326.163l-6.096 1.524c-.379.095-.777.095-1.156 0-1.255-.314-2.023-1.551-1.748-2.815l2.686-12.355c.912-4.205 3.754-7.748 7.639-9.56z"/></svg>