<?xml version="1.0" encoding="iso-8859-1"?>
<!-- Generator: Adobe Illustrator 19.0.0, SVG Export Plug-In . SVG Version: 6.00 Build 0)  -->
<svg version="1.1" id="Capa_1" xmlns="http://www.w3.org/2000/svg" xmlns:xlink="http://www.w3.org/1999/xlink" x="0px" y="0px"
	 viewBox="0 0 512 512" style="enable-background:new 0 0 512 512;" xml:space="preserve">
<g>
	<g>
		<path d="M512,132.613c0-52.8-42.955-95.755-95.755-95.755c-30.573,0-58.844,14.46-76.76,38.506
			C313.906,64.15,285.67,57.911,256,57.911c-29.67,0-57.906,6.24-83.485,17.454c-17.916-24.046-46.186-38.506-76.76-38.506
			C42.955,36.858,0,79.814,0,132.613c0,36.888,20.801,69.735,53.013,85.719c-3.674,15.476-5.63,31.61-5.63,48.193
			c0,115.032,93.585,208.617,208.617,208.617s208.617-93.585,208.617-208.616c0-16.584-1.956-32.718-5.63-48.193
			C491.199,202.347,512,169.5,512,132.613z M30.524,132.613c0-35.969,29.262-65.231,65.231-65.231
			c19.21,0,37.086,8.382,49.328,22.538c-36.952,23.291-66.118,57.846-82.643,98.814C42.906,177.188,30.524,156.107,30.524,132.613z
			 M256,444.619c-98.201,0-178.092-79.893-178.092-178.092S157.799,88.435,256,88.435s178.093,79.891,178.093,178.091
			S354.201,444.619,256,444.619z M449.56,188.734c-16.525-40.967-45.69-75.523-82.642-98.813
			c12.242-14.156,30.118-22.538,49.327-22.538c35.969,0,65.231,29.262,65.231,65.231
			C481.476,156.105,469.094,177.188,449.56,188.734z"/>
	</g>
</g>
<g>
	<g>
		<path d="M156.584,243.241c-7.983,0-15.631,7.02-15.262,15.262c0.37,8.269,6.706,15.262,15.262,15.262
			c7.983,0,15.631-7.02,15.262-15.262C171.476,250.235,165.14,243.241,156.584,243.241z"/>
	</g>
</g>
<g>
	<g>
		<path d="M355.416,243.241c-7.983,0-15.631,7.02-15.262,15.262c0.37,8.269,6.706,15.262,15.262,15.262
			c7.983,0,15.631-7.02,15.262-15.262C370.307,250.235,363.972,243.241,355.416,243.241z"/>
	</g>
</g>
<g>
	<g>
		<path d="M317.747,376.538c-2.898-7.917-11.661-11.987-19.578-9.09c-2.21,0.808-4.525,1.218-6.88,1.218
			c-11.044,0-20.027-8.984-20.027-20.027v-3.426c23.93-5.633,41.541-24.155,41.541-46.09c0-26.39-25.481-47.86-56.803-47.86
			c-31.322,0-56.803,21.471-56.803,47.86c0,21.935,17.611,40.457,41.541,46.09v3.426c0,11.043-8.984,20.027-20.027,20.027
			c-2.355,0-4.67-0.41-6.88-1.218c-7.92-2.898-16.681,1.173-19.576,9.09c-2.896,7.916,1.173,16.681,9.09,19.576
			c5.58,2.041,11.423,3.076,17.367,3.076c13.72,0,26.172-5.501,35.289-14.403c9.118,8.903,21.569,14.403,35.289,14.403
			c5.944,0,11.787-1.036,17.367-3.076C316.573,393.218,320.643,384.454,317.747,376.538z M256,316.458
			c-13.999,0-26.279-8.1-26.279-17.335c0-9.235,12.28-17.336,26.279-17.336s26.279,8.101,26.279,17.336
			C282.279,308.358,269.999,316.458,256,316.458z"/>
	</g>
</g>
<g>
</g>
<g>
</g>
<g>
</g>
<g>
</g>
<g>
</g>
<g>
</g>
<g>
</g>
<g>
</g>
<g>
</g>
<g>
</g>
<g>
</g>
<g>
</g>
<g>
</g>
<g>
</g>
<g>
</g>
</svg>
